<svg id="visual" viewBox="0 0 900 600" width="900" height="600" xmlns="http://www.w3.org/2000/svg" xmlns:xlink="http://www.w3.org/1999/xlink" version="1.1"><rect x="0" y="0" width="900" height="600" fill="#fbf6f6"></rect><defs><linearGradient id="grad1_0" x1="33.3%" y1="0%" x2="100%" y2="100%"><stop offset="20%" stopColor="#fbf6f6" stopOpacity="1"></stop><stop offset="80%" stopColor="#fbf6f6" stopOpacity="1"></stop></linearGradient></defs><defs><linearGradient id="grad2_0" x1="0%" y1="0%" x2="66.7%" y2="100%"><stop offset="20%" stopColor="#fbf6f6" stopOpacity="1"></stop><stop offset="80%" stopColor="#fbf6f6" stopOpacity="1"></stop></linearGradient></defs><g transform="translate(900, 0)"><path d="M0 189.3C-16.7 168.6 -33.5 148 -58.9 142.3C-84.4 136.6 -118.6 145.8 -133.8 133.8C-149.1 121.9 -145.4 88.6 -151.5 62.8C-157.6 36.9 -173.4 18.5 -189.3 0L0 0Z" fill="#f59e0b"></path></g><g transform="translate(0, 600)"><path d="M0 -189.3C19.5 -175.1 38.9 -160.9 63.9 -154.3C88.9 -147.7 119.4 -148.7 133.8 -133.8C148.3 -119 146.8 -88.5 153.4 -63.5C159.9 -38.6 174.6 -19.3 189.3 0L0 0Z" fill="#f59e0b"></path></g></svg>